. 
  
http://www.torrentday.com   -    Your Key To The Scene.

Now TvTeam with [No-RAR] Releases.

(((((((((((((= Enjoy No RAR releases =))))))))))))))))))))

...................................NFO:....................................

.
                                                     
                                                   
                                                         
                                                          
                                                           
                                                          
                                                          
                                                          
                                                           
                                                         
                                                          
                                                        
                                                      
                                     
                                                 
                                                   
                                             
                                              
                                                     
                                                      
                                                      
                                                      
                                                    
                                                     
                                                   
                                                     
                                                     
                                                      
                                                     
                                                      
                                                    
                 ARTiCHOKE                        
                                                
                      
                                                        
                                                      
                                                      
                                               
                                          
                                                   
                                            
                                                    
                                                       
                                                        
                                                      
                                                
                                                        
                                                 
                                              
                                                  
                                                
                                                  
                                        

      
                                
      SPRiNTER proudly presents...     
                                
      
 
 The.Third.Jihad.2008.DVDRip.XviD-SPRiNTER  http://www.imdb.com/title/tt1436475/
 Subtitles: N/A

 Date: 2010.04

 Director: Wayne Kopping
 Genre:  Documentary 
 Plot:  Muslim-American physician and former United States Navy officer
	Dr. Zuhdi Jasser investigates a secret manifesto that reveals a
	plan by Islamic radicals to infiltrate American society and bring
	Western civilization to its knees. 

 Cast:

 Ayaan Hirsi Ali   
 Rachel Ehrenfeld   
 Manda Zand Ervin   
 Rudolph W. Giuliani   
 Dr. Tawfik Hamid   
 Zuhdi Jasser   
 Ray Kelly   
 Bernard Lewis 


      
                 
      Release notes     
                 
      

 Hybrid source!


      
           
     Greetings    
           
      


NTX aAF FiCO HNR CiNEFiLE AEN HUMANiSM


      
           
      Details     
           
      

Format                           : AVI
Format/Info                      : Audio Video Interleave
File size                        : 698 MiB
Duration                         : 1h 11mn
Overall bit rate                 : 1 367 Kbps
Writing application              : Nandub v1.0rc2
Writing library                  : Nandub build 1852/release

Video
ID                               : 0
Format                           : MPEG-4 Visual
Format profile                   : Advanced Simple@L5
Format settings, BVOP            : No
Format settings, QPel            : No
Format settings, GMC             : No warppoints
Format settings, Matrix          : Default (H.263)
Codec ID                         : XVID
Codec ID/Hint                    : XviD
Duration                         : 1h 11mn
Bit rate                         : 1 222 Kbps
Width                            : 560 pixels
Height                           : 304 pixels
Display aspect ratio             : 16:9
Frame rate                       : 29.970 fps
Resolution                       : 8 bits
Colorimetry                      : 4:2:0
Scan type                        : Progressive
Bits/(Pixel*Frame)               : 0.240
Stream size                      : 624 MiB (89%)
Writing library                  : XviD 1.2.1 (UTC 2008-12-04)

Audio
ID                               : 1
Format                           : MPEG Audio
Format version                   : Version 1
Format profile                   : Layer 3
Codec ID                         : 55
Codec ID/Hint                    : MP3
Duration                         : 1h 11mn
Bit rate mode                    : Variable
Bit rate                         : 131 Kbps
Minimum bit rate                 : 40.0 Kbps
Channel(s)                       : 2 channels
Sampling rate                    : 48.0 KHz
Stream size                      : 67.0 MiB (10%)
Alignment                        : Aligned on interleaves
Interleave, duration             : 24 ms (0.72 video frame)
Interleave, preload duration     : 162 ms
Writing library                  : LAME3.95 
Encoding settings                : -m s -V 6 -q 3 -lowpass 16 --vbr-old -b 40